# xmcd
#
# Track frame offsets: 
#        150
#        1164
#        9483
#        18501
#        20623
#        33067
#        34390
#        42640
#        42960
#        53040
#        53341
#        56636
#        67359
#        79001
#        80218
#        81658
#        85136
#        90323
#        93480
#        96805
#        104957
#        129803
#
# Disc length: 2624 seconds
#
# Revision: 0
# Processed by: cddbd v1.5.2PL0 Copyright (c) Steve Scherf et al.
# Submitted via: ExactAudioCopy v0.95b3
#
DISCID=1b0a3e16
DTITLE=The Beatles  - Way Beyond Compare Episode 28 Pop Goes The Beatl
DTITLE=es 12 and Bournemouth (1-24 August 1963)  FLAC
DYEAR=1900
DGENRE=
TTITLE0='Alright, Let's Pop...!'
TTITLE1=From Me to You
TTITLE2=I'll Get You
TTITLE3='a dear John letter...'
TTITLE4=Money (That's What I Want)
TTITLE5='well Sir, here you are...'
TTITLE6=There's a Place
TTITLE7=Outro...
TTITLE8=Honey Don't
TTITLE9='that was the Beatles that was...'
TTITLE10='All Right Fellas, Roll Over...!'
TTITLE11=Roll Over Beethoven
TTITLE12=Twist And Shout (Scene at 6_30)
TTITLE13=Beatles And Klas Burling
TTITLE14=George And Klas Chat
TTITLE15=John,Paul And Klas Chat
TTITLE16=Paul And Klas Chat
TTITLE17=Paul And Klas Chat
TTITLE18=Ringo And Klas Chat
TTITLE19=Radio Interview, Klas Burling, Sweeden
TTITLE20=Don't Bother Me_Instrumental
TTITLE21=The Mersey Sound_... [Bbc-Tv]
EXTD=
EXTT0=
EXTT1=
EXTT2=
EXTT3=
EXTT4=
EXTT5=
EXTT6=
EXTT7=
EXTT8=
EXTT9=
EXTT10=
EXTT11=
EXTT12=
EXTT13=
EXTT14=
EXTT15=
EXTT16=
EXTT17=
EXTT18=
EXTT19=
EXTT20=
EXTT21=
PLAYORDER=
